<?xml version="1.0" standalone="no"?>
<!DOCTYPE svg PUBLIC "-//W3C//DTD SVG 20010904//EN"
 "http://www.w3.org/TR/2001/REC-SVG-20010904/DTD/svg10.dtd">
<svg version="1.0" xmlns="http://www.w3.org/2000/svg"
 width="512.000000pt" height="512.000000pt" viewBox="0 0 512.000000 512.000000"
 preserveAspectRatio="xMidYMid meet">
<metadata>
Created by potrace 1.11, written by Peter Selinger 2001-2013
</metadata>
<g transform="translate(0.000000,512.000000) scale(0.100000,-0.100000)"
fill="#000000" stroke="none">
<path d="M2564 4978 c-71 -73 -180 -190 -243 -260 -62 -71 -115 -128 -116
-128 -1 0 -45 20 -96 44 -335 158 -711 132 -1017 -70 -173 -115 -318 -296
-390 -487 -54 -144 -66 -214 -65 -377 0 -123 5 -160 27 -245 30 -118 105 -274
174 -365 50 -65 163 -178 215 -216 l29 -20 -45 -135 c-96 -287 -122 -460 -114
-764 13 -539 153 -932 438 -1229 259 -271 585 -414 1079 -471 165 -20 411 -15
609 11 588 77 1006 346 1230 792 121 241 179 474 203 814 29 432 -60 808 -312
1308 -238 470 -570 944 -1037 1479 -132 150 -420 451 -433 451 -4 0 -65 -60
-136 -132z"/>
</g>
</svg>
